<svg width="404" height="130" viewBox="0 0 404 130" fill="none" xmlns="http://www.w3.org/2000/svg">
<path d="M190.688 92C193.263 92 195.545 92.4464 197.536 93.3389C199.561 94.197 201.141 95.5015 202.273 97.252C203.44 98.9679 204.024 101.131 204.024 103.74V105.285H197.33V103.74C197.33 102.368 197.057 101.268 196.507 100.444C195.993 99.5863 195.236 98.9678 194.241 98.5908C193.245 98.1789 192.061 97.9727 190.688 97.9727C188.628 97.9727 187.101 98.3682 186.105 99.1572C185.145 99.9122 184.664 100.959 184.664 102.298C184.664 103.191 184.887 103.946 185.333 104.563C185.814 105.181 186.517 105.695 187.444 106.107C188.371 106.519 189.555 106.88 190.997 107.189L192.182 107.447C194.757 107.996 196.988 108.7 198.876 109.558C200.798 110.416 202.291 111.549 203.355 112.957C204.419 114.364 204.951 116.166 204.951 118.363C204.951 120.56 204.385 122.499 203.253 124.181C202.154 125.829 200.575 127.133 198.516 128.095C196.49 129.021 194.087 129.484 191.307 129.484C188.526 129.484 186.071 128.987 183.943 127.992C181.815 126.996 180.15 125.572 178.948 123.718C177.747 121.864 177.146 119.632 177.146 117.023V115.583H183.841V117.023C183.841 119.186 184.51 120.817 185.849 121.916C187.188 122.98 189.007 123.512 191.307 123.512C193.641 123.512 195.375 123.049 196.507 122.122C197.675 121.195 198.258 120.011 198.258 118.569C198.258 117.574 197.966 116.766 197.383 116.148C196.834 115.53 196.009 115.033 194.91 114.656C193.846 114.244 192.542 113.865 190.997 113.522L189.813 113.266C187.342 112.716 185.214 112.03 183.429 111.206C181.678 110.348 180.321 109.231 179.36 107.858C178.434 106.485 177.971 104.701 177.971 102.504C177.971 100.307 178.486 98.4356 179.516 96.8916C180.58 95.3124 182.055 94.1109 183.943 93.2871C185.865 92.4289 188.114 92 190.688 92ZM224.746 92C229.174 92 232.59 93.219 234.992 95.6562C237.43 98.0593 238.648 101.371 238.648 105.593V105.902H231.954V105.388C231.954 103.259 231.354 101.509 230.152 100.136C228.985 98.7618 227.183 98.0762 224.746 98.0762C222.343 98.0763 220.455 98.8141 219.082 100.29C217.709 101.766 217.023 103.774 217.022 106.313V115.171C217.022 117.676 217.709 119.685 219.082 121.195C220.455 122.671 222.343 123.409 224.746 123.409C227.183 123.409 228.985 122.723 230.152 121.349C231.354 119.942 231.954 118.191 231.954 116.097V115.171H238.648V115.891C238.648 120.114 237.43 123.443 234.992 125.881C232.59 128.283 229.174 129.484 224.746 129.484C220.283 129.484 216.749 128.249 214.14 125.778C211.531 123.272 210.227 119.701 210.227 115.067V106.417C210.227 101.783 211.531 98.2299 214.14 95.7588C216.749 93.2531 220.283 92.0001 224.746 92ZM0 129.335V38.0684L22.5889 60.6572L68.6777 14.5674L114.996 14.3389L0 129.335ZM268.387 98.8994H252.014V107.499H266.945V113.677H252.014V122.585H268.695V128.764H245.217V92.7207H268.387V98.8994ZM294.838 124.13H295.765V92.7207H302.459V128.764H289.534L282.378 97.3545H281.45V128.764H274.757V92.7207H287.681L294.838 124.13ZM333.451 98.8994H317.077V107.499H332.01V113.677H317.077V122.585H333.761V128.764H310.28V92.7207H333.451V98.8994ZM355.475 92.7207C357.74 92.7207 359.714 93.1158 361.396 93.9053C363.077 94.6948 364.383 95.81 365.309 97.252C366.236 98.6939 366.699 100.393 366.699 102.35V102.968C366.699 105.13 366.184 106.881 365.154 108.219C364.124 109.558 362.855 110.537 361.345 111.154V112.081C362.717 112.15 363.781 112.63 364.536 113.522C365.291 114.38 365.67 115.531 365.67 116.973V128.764H358.872V117.951C358.872 117.127 358.649 116.457 358.203 115.942C357.791 115.428 357.087 115.171 356.093 115.171H346.617V128.764H339.821V92.7207H355.475ZM384.683 108.168H385.609L393.229 92.7207H400.799L388.545 116.354V128.764H381.747V116.354L369.492 92.7207H377.062L384.683 108.168ZM147.395 91.459L124.807 68.8711L78.7168 114.961L32.3994 115.188L147.395 0.192383V91.459ZM346.617 108.992H354.754C356.367 108.992 357.62 108.563 358.513 107.705C359.439 106.812 359.902 105.645 359.902 104.203V103.688C359.902 102.247 359.456 101.097 358.563 100.239C357.672 99.3463 356.402 98.8995 354.754 98.8994H346.617V108.992ZM190.688 46C193.263 46 195.545 46.4464 197.536 47.3389C199.561 48.197 201.141 49.5014 202.273 51.252C203.44 52.9684 204.024 55.1313 204.024 57.7402V59.2842H197.33V57.7402C197.33 56.3672 197.057 55.2681 196.507 54.4443C195.993 53.5861 195.236 52.9684 194.241 52.5908C193.245 52.1789 192.061 51.9727 190.688 51.9727C188.628 51.9727 187.101 52.3677 186.105 53.1572C185.145 53.9124 184.664 54.9592 184.664 56.2979C184.664 57.1902 184.887 57.9456 185.333 58.5635C185.814 59.1814 186.517 59.6965 187.444 60.1084C188.371 60.5203 189.555 60.8805 190.997 61.1895L192.182 61.4473C194.757 61.9966 196.988 62.6995 198.876 63.5576C200.798 64.4158 202.291 65.5488 203.355 66.9561C204.419 68.3635 204.951 70.1664 204.951 72.3633C204.951 74.56 204.385 76.4997 203.253 78.1816C202.154 79.8293 200.575 81.1336 198.516 82.0947C196.49 83.0216 194.087 83.4844 191.307 83.4844C188.526 83.4844 186.071 82.9867 183.943 81.9912C181.815 80.9958 180.15 79.5713 178.948 77.7178C177.747 75.8642 177.147 73.633 177.146 71.0244V69.582H183.841V71.0244C183.841 73.1869 184.51 74.8177 185.849 75.916C187.188 76.9801 189.007 77.5117 191.307 77.5117C193.641 77.5117 195.375 77.0489 196.507 76.1221C197.675 75.1954 198.258 74.0108 198.258 72.5693C198.258 71.5738 197.966 70.7663 197.383 70.1484C196.834 69.5306 196.009 69.0329 194.91 68.6553C193.846 68.2434 192.542 67.8656 190.997 67.5225L189.813 67.2656C187.342 66.7165 185.214 66.0298 183.429 65.2061C181.678 64.3479 180.321 63.2323 179.36 61.8594C178.433 60.4863 177.971 58.7008 177.971 56.5039C177.971 54.307 178.486 52.4363 179.516 50.8916C180.58 49.3126 182.055 48.1109 183.943 47.2871C185.865 46.4289 188.114 46 190.688 46ZM253.993 46C256.567 46 258.851 46.4464 260.842 47.3389C262.867 48.1969 264.445 49.5015 265.578 51.252C266.745 52.9684 267.328 55.1313 267.328 57.7402V59.2842H260.636V57.7402C260.636 56.3671 260.361 55.2681 259.812 54.4443C259.297 53.5862 258.542 52.9684 257.546 52.5908C256.551 52.1788 255.366 51.9727 253.993 51.9727C251.933 51.9727 250.405 52.3678 249.41 53.1572C248.449 53.9124 247.969 54.9593 247.969 56.2979C247.969 57.1904 248.192 57.9456 248.639 58.5635C249.119 59.1813 249.822 59.6965 250.749 60.1084C251.676 60.5203 252.861 60.8805 254.303 61.1895L255.486 61.4473C258.06 61.9966 260.293 62.6995 262.18 63.5576C264.102 64.4157 265.595 65.5488 266.659 66.9561C267.723 68.3635 268.256 70.1664 268.256 72.3633C268.256 74.56 267.69 76.4997 266.557 78.1816C265.459 79.8292 263.879 81.1337 261.819 82.0947C259.794 83.0216 257.391 83.4844 254.61 83.4844C251.83 83.4844 249.376 82.9867 247.247 81.9912C245.119 80.9958 243.455 79.5712 242.254 77.7178C241.052 75.8641 240.451 73.6331 240.451 71.0244V69.582H247.145V71.0244C247.145 73.1869 247.814 74.8177 249.153 75.916C250.491 76.9802 252.311 77.5117 254.61 77.5117C256.945 77.5117 258.679 77.0488 259.812 76.1221C260.978 75.1954 261.562 74.0108 261.562 72.5693C261.562 71.5738 261.271 70.7663 260.687 70.1484C260.138 69.5308 259.314 69.0328 258.216 68.6553C257.152 68.2434 255.847 67.8657 254.303 67.5225L253.117 67.2656C250.646 66.7164 248.517 66.0298 246.732 65.2061C244.982 64.3479 243.626 63.2323 242.665 61.8594C241.738 60.4863 241.275 58.7008 241.275 56.5039C241.275 54.3071 241.789 52.4363 242.819 50.8916C243.883 49.3127 245.359 48.1109 247.247 47.2871C249.17 46.4289 251.418 46 253.993 46ZM222.146 62.168H223.073L230.694 46.7207H238.264L226.009 70.3545V82.7637H219.212V70.3545L206.957 46.7207H214.526L222.146 62.168ZM298.841 52.8994H288.337V82.7637H281.539V52.8994H271.035V46.7207H298.841V52.8994ZM327.669 52.8994H311.296V61.498H326.228V67.6777H311.296V76.585H327.978V82.7637H304.498V46.7207H327.669V52.8994ZM352.885 78.1299H353.811L360.041 46.7207H372.656V82.7637H366.065V51.7158H365.139L358.96 82.7637H347.735L341.557 51.7158H340.63V82.7637H334.038V46.7207H346.653L352.885 78.1299ZM388.507 48.6777H384.696V58.1514H382.533V48.6777H378.724V46.7207H388.507V48.6777ZM396.334 56.1953H396.849L399.011 46.7207H403.13V58.1514H400.968V48.6777H400.452L398.289 58.1514H394.892L392.729 48.6777H392.214V58.1514H390.052V46.7207H394.171L396.334 56.1953ZM190.688 0C193.263 0 195.545 0.44644 197.536 1.33887C199.561 2.19702 201.141 3.50131 202.273 5.25195C203.44 6.96833 204.024 9.13133 204.024 11.7402V13.2842H197.33V11.7402C197.33 10.3672 197.057 9.26812 196.507 8.44434C195.993 7.58614 195.236 6.96842 194.241 6.59082C193.245 6.17888 192.061 5.97266 190.688 5.97266C188.628 5.97266 187.101 6.36773 186.105 7.15723C185.145 7.9124 184.664 8.95925 184.664 10.2979C184.664 11.1902 184.887 11.9456 185.333 12.5635C185.814 13.1814 186.517 13.6965 187.444 14.1084C188.371 14.5203 189.555 14.8805 190.997 15.1895L192.182 15.4473C194.757 15.9966 196.988 16.6995 198.876 17.5576C200.798 18.4158 202.291 19.5488 203.355 20.9561C204.419 22.3635 204.951 24.1664 204.951 26.3633C204.951 28.56 204.385 30.4997 203.253 32.1816C202.154 33.8293 200.575 35.1336 198.516 36.0947C196.49 37.0216 194.087 37.4844 191.307 37.4844C188.526 37.4844 186.071 36.9867 183.943 35.9912C181.815 34.9958 180.15 33.5713 178.948 31.7178C177.747 29.8642 177.147 27.633 177.146 25.0244V23.582H183.841V25.0244C183.841 27.1869 184.51 28.8177 185.849 29.916C187.188 30.9801 189.007 31.5117 191.307 31.5117C193.641 31.5117 195.375 31.0489 196.507 30.1221C197.675 29.1954 198.258 28.0108 198.258 26.5693C198.258 25.5738 197.966 24.7663 197.383 24.1484C196.834 23.5306 196.009 23.0329 194.91 22.6553C193.846 22.2434 192.542 21.8656 190.997 21.5225L189.813 21.2656C187.342 20.7165 185.214 20.0298 183.429 19.2061C181.678 18.3479 180.321 17.2323 179.36 15.8594C178.433 14.4863 177.971 12.7008 177.971 10.5039C177.971 8.30703 178.486 6.4363 179.516 4.8916C180.58 3.3126 182.055 2.11094 183.943 1.28711C185.865 0.428941 188.114 1.69577e-06 190.688 0ZM217.847 30.585H234.323V36.7637H211.051V0.720703H217.847V30.585ZM246.783 36.7637H239.986V0.720703H246.783V36.7637ZM268.393 0.720703C273.232 0.720719 276.905 1.95649 279.411 4.42773C281.951 6.8649 283.222 10.5038 283.222 15.3438V22.1406C283.222 26.9807 281.951 30.6369 279.411 33.1084C276.905 35.5454 273.232 36.7637 268.393 36.7637H253.563V30.791H258.301V6.69336H253.563V0.720703H268.393ZM313.087 6.89941H296.713V15.498H311.645V21.6777H296.713V30.585H313.396V36.7637H289.916V0.720703H313.087V6.89941ZM335.109 0.720703C337.375 0.720703 339.348 1.11579 341.03 1.90527C342.712 2.69477 344.017 3.81028 344.944 5.25195C345.87 6.69363 346.335 8.39301 346.335 10.3496V10.9678C346.335 13.1302 345.819 14.881 344.789 16.2197C343.759 17.5582 342.489 18.5365 340.979 19.1543V20.0811C342.352 20.1498 343.417 20.63 344.172 21.5225C344.927 22.3806 345.305 23.531 345.305 24.9727V36.7637H338.508V25.9512C338.508 25.1274 338.285 24.4573 337.839 23.9424C337.427 23.4276 336.722 23.1709 335.728 23.1709H326.254V36.7637H319.456V0.720703H335.109ZM265.098 30.585H268.495C271.241 30.585 273.25 29.8644 274.52 28.4229C275.79 26.9812 276.426 24.9555 276.426 22.3467V15.1377C276.426 12.4948 275.789 10.4698 274.52 9.0625C273.25 7.6208 271.241 6.89941 268.495 6.89941H265.098V30.585ZM326.254 16.9912H334.389C336.003 16.9912 337.254 16.5623 338.147 15.7041C339.074 14.8116 339.537 13.6447 339.537 12.2031V11.6885C339.537 10.2467 339.091 9.09648 338.198 8.23828C337.306 7.34592 336.036 6.89945 334.389 6.89941H326.254V16.9912Z" fill="black"></path>
</svg>